<svg xmlns="http://www.w3.org/2000/svg" width="830" height="240" viewBox="0 0 830 240" role="img">
<rect x="0.5" y="0.5" width="829" height="239" rx="12" fill="#FAFAF8" stroke="#E6E4DE"/>
<style>
.drift{animation:drift 14s ease-in-out infinite alternate}
.hot{transform-box:fill-box;transform-origin:center;animation:pulse 4s ease-in-out infinite}
.cold{animation:twinkle 6s ease-in-out infinite}
.halo{transform-box:fill-box;transform-origin:center;animation:ring 4s ease-out infinite}
.glow{animation:glow 5s ease-in-out infinite}
@keyframes drift{from{transform:translate(-4px,2px)}to{transform:translate(4px,-3px)}}
@keyframes pulse{0%,100%{transform:scale(1)}50%{transform:scale(1.5)}}
@keyframes twinkle{0%,100%{opacity:1}50%{opacity:.45}}
@keyframes ring{0%{transform:scale(1);opacity:.7}100%{transform:scale(4.5);opacity:0}}
@keyframes glow{0%,100%{stroke-opacity:.25}50%{stroke-opacity:.7}}
@media (prefers-reduced-motion:reduce){.drift,.hot,.cold,.halo,.glow{animation:none}.halo{opacity:0}}
</style>
<g class="drift">
<line x1="470.0" y1="204.2" x2="487.8" y2="173.9" stroke="#111110" stroke-opacity="0.16" stroke-width="1"/>
<line x1="718.0" y1="126.5" x2="726.7" y2="128.6" stroke="#111110" stroke-opacity="0.16" stroke-width="1"/>
<line class="glow" x1="718.0" y1="126.5" x2="754.6" y2="86.5" stroke="#E4570E" stroke-opacity="0.45" stroke-width="1"/>
<line x1="718.0" y1="126.5" x2="660.6" y2="121.8" stroke="#111110" stroke-opacity="0.16" stroke-width="1"/>
<line x1="718.0" y1="126.5" x2="685.7" y2="123.2" stroke="#111110" stroke-opacity="0.16" stroke-width="1"/>
<line x1="718.0" y1="126.5" x2="669.5" y2="90.1" stroke="#111110" stroke-opacity="0.16" stroke-width="1"/>
<line class="glow" x1="718.0" y1="126.5" x2="728.8" y2="75.1" stroke="#E4570E" stroke-opacity="0.45" stroke-width="1"/>
<line x1="718.0" y1="126.5" x2="722.0" y2="117.9" stroke="#111110" stroke-opacity="0.16" stroke-width="1"/>
<line x1="718.0" y1="126.5" x2="730.1" y2="103.9" stroke="#111110" stroke-opacity="0.16" stroke-width="1"/>
<line x1="718.0" y1="126.5" x2="770.0" y2="99.7" stroke="#111110" stroke-opacity="0.16" stroke-width="1"/>
<line x1="718.0" y1="126.5" x2="771.6" y2="131.8" stroke="#111110" stroke-opacity="0.16" stroke-width="1"/>
<line x1="718.0" y1="126.5" x2="719.9" y2="87.0" stroke="#111110" stroke-opacity="0.16" stroke-width="1"/>
<line class="glow" x1="726.7" y1="128.6" x2="754.6" y2="86.5" stroke="#E4570E" stroke-opacity="0.45" stroke-width="1"/>
<line x1="726.7" y1="128.6" x2="778.2" y2="111.6" stroke="#111110" stroke-opacity="0.16" stroke-width="1"/>
<line x1="726.7" y1="128.6" x2="685.7" y2="123.2" stroke="#111110" stroke-opacity="0.16" stroke-width="1"/>
<line class="glow" x1="726.7" y1="128.6" x2="728.8" y2="75.1" stroke="#E4570E" stroke-opacity="0.45" stroke-width="1"/>
<line x1="726.7" y1="128.6" x2="722.0" y2="117.9" stroke="#111110" stroke-opacity="0.16" stroke-width="1"/>
<line x1="726.7" y1="128.6" x2="730.1" y2="103.9" stroke="#111110" stroke-opacity="0.16" stroke-width="1"/>
<line x1="726.7" y1="128.6" x2="770.0" y2="99.7" stroke="#111110" stroke-opacity="0.16" stroke-width="1"/>
<line x1="726.7" y1="128.6" x2="771.6" y2="131.8" stroke="#111110" stroke-opacity="0.16" stroke-width="1"/>
<line x1="726.7" y1="128.6" x2="719.9" y2="87.0" stroke="#111110" stroke-opacity="0.16" stroke-width="1"/>
<line x1="747.7" y1="68.4" x2="707.3" y2="30.8" stroke="#111110" stroke-opacity="0.16" stroke-width="1"/>
<line class="glow" x1="747.7" y1="68.4" x2="754.6" y2="86.5" stroke="#E4570E" stroke-opacity="0.45" stroke-width="1"/>
<line x1="747.7" y1="68.4" x2="779.0" y2="31.0" stroke="#111110" stroke-opacity="0.16" stroke-width="1"/>
<line x1="747.7" y1="68.4" x2="778.2" y2="111.6" stroke="#111110" stroke-opacity="0.16" stroke-width="1"/>
<line x1="747.7" y1="68.4" x2="789.5" y2="99.3" stroke="#111110" stroke-opacity="0.16" stroke-width="1"/>
<line x1="747.7" y1="68.4" x2="808.7" y2="64.0" stroke="#111110" stroke-opacity="0.16" stroke-width="1"/>
<line class="glow" x1="747.7" y1="68.4" x2="728.8" y2="75.1" stroke="#E4570E" stroke-opacity="0.45" stroke-width="1"/>
<line x1="747.7" y1="68.4" x2="722.0" y2="117.9" stroke="#111110" stroke-opacity="0.16" stroke-width="1"/>
<line x1="747.7" y1="68.4" x2="769.9" y2="67.0" stroke="#111110" stroke-opacity="0.16" stroke-width="1"/>
<line x1="747.7" y1="68.4" x2="730.1" y2="103.9" stroke="#111110" stroke-opacity="0.16" stroke-width="1"/>
<line x1="747.7" y1="68.4" x2="770.0" y2="99.7" stroke="#111110" stroke-opacity="0.16" stroke-width="1"/>
<line x1="747.7" y1="68.4" x2="719.9" y2="87.0" stroke="#111110" stroke-opacity="0.16" stroke-width="1"/>
<line class="glow" x1="707.3" y1="30.8" x2="728.8" y2="75.1" stroke="#E4570E" stroke-opacity="0.45" stroke-width="1"/>
<line x1="707.3" y1="30.8" x2="719.9" y2="87.0" stroke="#111110" stroke-opacity="0.16" stroke-width="1"/>
<line x1="707.3" y1="30.8" x2="689.4" y2="47.1" stroke="#111110" stroke-opacity="0.16" stroke-width="1"/>
<line class="glow" x1="783.6" y1="181.5" x2="783.9" y2="157.7" stroke="#E4570E" stroke-opacity="0.45" stroke-width="1"/>
<line class="glow" x1="783.6" y1="181.5" x2="780.1" y2="201.7" stroke="#E4570E" stroke-opacity="0.45" stroke-width="1"/>
<line class="glow" x1="783.6" y1="181.5" x2="740.2" y2="195.5" stroke="#E4570E" stroke-opacity="0.45" stroke-width="1"/>
<line class="glow" x1="783.6" y1="181.5" x2="770.8" y2="198.1" stroke="#E4570E" stroke-opacity="0.45" stroke-width="1"/>
<line class="glow" x1="783.6" y1="181.5" x2="770.3" y2="192.3" stroke="#E4570E" stroke-opacity="0.45" stroke-width="1"/>
<line class="glow" x1="783.6" y1="181.5" x2="771.6" y2="131.8" stroke="#E4570E" stroke-opacity="0.45" stroke-width="1"/>
<line class="glow" x1="783.6" y1="181.5" x2="732.3" y2="209.2" stroke="#E4570E" stroke-opacity="0.45" stroke-width="1"/>
<line x1="783.9" y1="157.7" x2="780.1" y2="201.7" stroke="#111110" stroke-opacity="0.16" stroke-width="1"/>
<line x1="783.9" y1="157.7" x2="778.2" y2="111.6" stroke="#111110" stroke-opacity="0.16" stroke-width="1"/>
<line x1="783.9" y1="157.7" x2="789.5" y2="99.3" stroke="#111110" stroke-opacity="0.16" stroke-width="1"/>
<line class="glow" x1="783.9" y1="157.7" x2="740.2" y2="195.5" stroke="#E4570E" stroke-opacity="0.45" stroke-width="1"/>
<line x1="783.9" y1="157.7" x2="770.8" y2="198.1" stroke="#111110" stroke-opacity="0.16" stroke-width="1"/>
<line x1="783.9" y1="157.7" x2="770.3" y2="192.3" stroke="#111110" stroke-opacity="0.16" stroke-width="1"/>
<line x1="783.9" y1="157.7" x2="770.0" y2="99.7" stroke="#111110" stroke-opacity="0.16" stroke-width="1"/>
<line x1="783.9" y1="157.7" x2="771.6" y2="131.8" stroke="#111110" stroke-opacity="0.16" stroke-width="1"/>
<line class="glow" x1="780.1" y1="201.7" x2="740.2" y2="195.5" stroke="#E4570E" stroke-opacity="0.45" stroke-width="1"/>
<line x1="780.1" y1="201.7" x2="770.8" y2="198.1" stroke="#111110" stroke-opacity="0.16" stroke-width="1"/>
<line x1="780.1" y1="201.7" x2="770.3" y2="192.3" stroke="#111110" stroke-opacity="0.16" stroke-width="1"/>
<line x1="780.1" y1="201.7" x2="732.3" y2="209.2" stroke="#111110" stroke-opacity="0.16" stroke-width="1"/>
<line class="glow" x1="754.6" y1="86.5" x2="779.0" y2="31.0" stroke="#E4570E" stroke-opacity="0.45" stroke-width="1"/>
<line class="glow" x1="754.6" y1="86.5" x2="778.2" y2="111.6" stroke="#E4570E" stroke-opacity="0.45" stroke-width="1"/>
<line class="glow" x1="754.6" y1="86.5" x2="789.5" y2="99.3" stroke="#E4570E" stroke-opacity="0.45" stroke-width="1"/>
<line class="glow" x1="754.6" y1="86.5" x2="808.7" y2="64.0" stroke="#E4570E" stroke-opacity="0.45" stroke-width="1"/>
<line class="glow" x1="754.6" y1="86.5" x2="728.8" y2="75.1" stroke="#E4570E" stroke-opacity="0.45" stroke-width="1"/>
<line class="glow" x1="754.6" y1="86.5" x2="722.0" y2="117.9" stroke="#E4570E" stroke-opacity="0.45" stroke-width="1"/>
<line class="glow" x1="754.6" y1="86.5" x2="769.9" y2="67.0" stroke="#E4570E" stroke-opacity="0.45" stroke-width="1"/>
<line class="glow" x1="754.6" y1="86.5" x2="730.1" y2="103.9" stroke="#E4570E" stroke-opacity="0.45" stroke-width="1"/>
<line class="glow" x1="754.6" y1="86.5" x2="770.0" y2="99.7" stroke="#E4570E" stroke-opacity="0.45" stroke-width="1"/>
<line class="glow" x1="754.6" y1="86.5" x2="771.6" y2="131.8" stroke="#E4570E" stroke-opacity="0.45" stroke-width="1"/>
<line class="glow" x1="754.6" y1="86.5" x2="719.9" y2="87.0" stroke="#E4570E" stroke-opacity="0.45" stroke-width="1"/>
<line x1="615.7" y1="79.0" x2="607.9" y2="76.7" stroke="#111110" stroke-opacity="0.16" stroke-width="1"/>
<line x1="615.7" y1="79.0" x2="583.1" y2="126.3" stroke="#111110" stroke-opacity="0.16" stroke-width="1"/>
<line x1="615.7" y1="79.0" x2="669.5" y2="90.1" stroke="#111110" stroke-opacity="0.16" stroke-width="1"/>
<line class="glow" x1="615.7" y1="79.0" x2="625.4" y2="138.6" stroke="#E4570E" stroke-opacity="0.45" stroke-width="1"/>
<line class="glow" x1="615.7" y1="79.0" x2="560.5" y2="64.6" stroke="#E4570E" stroke-opacity="0.45" stroke-width="1"/>
<line class="glow" x1="615.7" y1="79.0" x2="639.4" y2="26.5" stroke="#E4570E" stroke-opacity="0.45" stroke-width="1"/>
<line x1="615.7" y1="79.0" x2="621.9" y2="53.2" stroke="#111110" stroke-opacity="0.16" stroke-width="1"/>
<line class="glow" x1="718.0" y1="195.6" x2="695.9" y2="204.9" stroke="#E4570E" stroke-opacity="0.45" stroke-width="1"/>
<line class="glow" x1="718.0" y1="195.6" x2="740.2" y2="195.5" stroke="#E4570E" stroke-opacity="0.45" stroke-width="1"/>
<line class="glow" x1="718.0" y1="195.6" x2="770.8" y2="198.1" stroke="#E4570E" stroke-opacity="0.45" stroke-width="1"/>
<line class="glow" x1="718.0" y1="195.6" x2="686.6" y2="204.4" stroke="#E4570E" stroke-opacity="0.45" stroke-width="1"/>
<line class="glow" x1="718.0" y1="195.6" x2="770.3" y2="192.3" stroke="#E4570E" stroke-opacity="0.45" stroke-width="1"/>
<line class="glow" x1="718.0" y1="195.6" x2="685.0" y2="194.4" stroke="#E4570E" stroke-opacity="0.45" stroke-width="1"/>
<line class="glow" x1="718.0" y1="195.6" x2="732.3" y2="209.2" stroke="#E4570E" stroke-opacity="0.45" stroke-width="1"/>
<line x1="660.6" y1="121.8" x2="685.7" y2="123.2" stroke="#111110" stroke-opacity="0.16" stroke-width="1"/>
<line x1="660.6" y1="121.8" x2="669.5" y2="90.1" stroke="#111110" stroke-opacity="0.16" stroke-width="1"/>
<line class="glow" x1="660.6" y1="121.8" x2="625.4" y2="138.6" stroke="#E4570E" stroke-opacity="0.45" stroke-width="1"/>
<line x1="660.6" y1="121.8" x2="722.0" y2="117.9" stroke="#111110" stroke-opacity="0.16" stroke-width="1"/>
<line x1="779.0" y1="31.0" x2="808.7" y2="64.0" stroke="#111110" stroke-opacity="0.16" stroke-width="1"/>
<line x1="779.0" y1="31.0" x2="769.9" y2="67.0" stroke="#111110" stroke-opacity="0.16" stroke-width="1"/>
<line class="glow" x1="695.9" y1="204.9" x2="740.2" y2="195.5" stroke="#E4570E" stroke-opacity="0.45" stroke-width="1"/>
<line class="glow" x1="695.9" y1="204.9" x2="686.6" y2="204.4" stroke="#E4570E" stroke-opacity="0.45" stroke-width="1"/>
<line x1="695.9" y1="204.9" x2="685.0" y2="194.4" stroke="#111110" stroke-opacity="0.16" stroke-width="1"/>
<line x1="695.9" y1="204.9" x2="732.3" y2="209.2" stroke="#111110" stroke-opacity="0.16" stroke-width="1"/>
<line x1="607.9" y1="76.7" x2="583.1" y2="126.3" stroke="#111110" stroke-opacity="0.16" stroke-width="1"/>
<line class="glow" x1="607.9" y1="76.7" x2="560.5" y2="64.6" stroke="#E4570E" stroke-opacity="0.45" stroke-width="1"/>
<line class="glow" x1="607.9" y1="76.7" x2="639.4" y2="26.5" stroke="#E4570E" stroke-opacity="0.45" stroke-width="1"/>
<line x1="607.9" y1="76.7" x2="621.9" y2="53.2" stroke="#111110" stroke-opacity="0.16" stroke-width="1"/>
<line class="glow" x1="583.1" y1="126.3" x2="625.4" y2="138.6" stroke="#E4570E" stroke-opacity="0.45" stroke-width="1"/>
<line x1="778.2" y1="111.6" x2="789.5" y2="99.3" stroke="#111110" stroke-opacity="0.16" stroke-width="1"/>
<line x1="778.2" y1="111.6" x2="808.7" y2="64.0" stroke="#111110" stroke-opacity="0.16" stroke-width="1"/>
<line class="glow" x1="778.2" y1="111.6" x2="728.8" y2="75.1" stroke="#E4570E" stroke-opacity="0.45" stroke-width="1"/>
<line x1="778.2" y1="111.6" x2="722.0" y2="117.9" stroke="#111110" stroke-opacity="0.16" stroke-width="1"/>
<line x1="778.2" y1="111.6" x2="769.9" y2="67.0" stroke="#111110" stroke-opacity="0.16" stroke-width="1"/>
<line x1="778.2" y1="111.6" x2="730.1" y2="103.9" stroke="#111110" stroke-opacity="0.16" stroke-width="1"/>
<line x1="778.2" y1="111.6" x2="770.0" y2="99.7" stroke="#111110" stroke-opacity="0.16" stroke-width="1"/>
<line x1="778.2" y1="111.6" x2="771.6" y2="131.8" stroke="#111110" stroke-opacity="0.16" stroke-width="1"/>
<line x1="685.7" y1="123.2" x2="669.5" y2="90.1" stroke="#111110" stroke-opacity="0.16" stroke-width="1"/>
<line x1="685.7" y1="123.2" x2="722.0" y2="117.9" stroke="#111110" stroke-opacity="0.16" stroke-width="1"/>
<line x1="685.7" y1="123.2" x2="730.1" y2="103.9" stroke="#111110" stroke-opacity="0.16" stroke-width="1"/>
<line x1="685.7" y1="123.2" x2="719.9" y2="87.0" stroke="#111110" stroke-opacity="0.16" stroke-width="1"/>
<line x1="789.5" y1="99.3" x2="808.7" y2="64.0" stroke="#111110" stroke-opacity="0.16" stroke-width="1"/>
<line x1="789.5" y1="99.3" x2="769.9" y2="67.0" stroke="#111110" stroke-opacity="0.16" stroke-width="1"/>
<line x1="789.5" y1="99.3" x2="730.1" y2="103.9" stroke="#111110" stroke-opacity="0.16" stroke-width="1"/>
<line x1="789.5" y1="99.3" x2="770.0" y2="99.7" stroke="#111110" stroke-opacity="0.16" stroke-width="1"/>
<line x1="789.5" y1="99.3" x2="771.6" y2="131.8" stroke="#111110" stroke-opacity="0.16" stroke-width="1"/>
<line class="glow" x1="669.5" y1="90.1" x2="728.8" y2="75.1" stroke="#E4570E" stroke-opacity="0.45" stroke-width="1"/>
<line x1="669.5" y1="90.1" x2="722.0" y2="117.9" stroke="#111110" stroke-opacity="0.16" stroke-width="1"/>
<line x1="669.5" y1="90.1" x2="719.9" y2="87.0" stroke="#111110" stroke-opacity="0.16" stroke-width="1"/>
<line x1="669.5" y1="90.1" x2="689.4" y2="47.1" stroke="#111110" stroke-opacity="0.16" stroke-width="1"/>
<line x1="669.5" y1="90.1" x2="621.9" y2="53.2" stroke="#111110" stroke-opacity="0.16" stroke-width="1"/>
<line class="glow" x1="740.2" y1="195.5" x2="770.8" y2="198.1" stroke="#E4570E" stroke-opacity="0.45" stroke-width="1"/>
<line class="glow" x1="740.2" y1="195.5" x2="686.6" y2="204.4" stroke="#E4570E" stroke-opacity="0.45" stroke-width="1"/>
<line class="glow" x1="740.2" y1="195.5" x2="770.3" y2="192.3" stroke="#E4570E" stroke-opacity="0.45" stroke-width="1"/>
<line class="glow" x1="740.2" y1="195.5" x2="685.0" y2="194.4" stroke="#E4570E" stroke-opacity="0.45" stroke-width="1"/>
<line class="glow" x1="740.2" y1="195.5" x2="732.3" y2="209.2" stroke="#E4570E" stroke-opacity="0.45" stroke-width="1"/>
<line class="glow" x1="496.4" y1="101.4" x2="510.2" y2="117.9" stroke="#E4570E" stroke-opacity="0.45" stroke-width="1"/>
<line class="glow" x1="496.4" y1="101.4" x2="514.5" y2="157.6" stroke="#E4570E" stroke-opacity="0.45" stroke-width="1"/>
<line class="glow" x1="496.4" y1="101.4" x2="537.5" y2="82.3" stroke="#E4570E" stroke-opacity="0.45" stroke-width="1"/>
<line x1="808.7" y1="64.0" x2="769.9" y2="67.0" stroke="#111110" stroke-opacity="0.16" stroke-width="1"/>
<line x1="808.7" y1="64.0" x2="770.0" y2="99.7" stroke="#111110" stroke-opacity="0.16" stroke-width="1"/>
<line x1="770.8" y1="198.1" x2="770.3" y2="192.3" stroke="#111110" stroke-opacity="0.16" stroke-width="1"/>
<line x1="770.8" y1="198.1" x2="732.3" y2="209.2" stroke="#111110" stroke-opacity="0.16" stroke-width="1"/>
<line class="glow" x1="728.8" y1="75.1" x2="722.0" y2="117.9" stroke="#E4570E" stroke-opacity="0.45" stroke-width="1"/>
<line class="glow" x1="728.8" y1="75.1" x2="769.9" y2="67.0" stroke="#E4570E" stroke-opacity="0.45" stroke-width="1"/>
<line class="glow" x1="728.8" y1="75.1" x2="730.1" y2="103.9" stroke="#E4570E" stroke-opacity="0.45" stroke-width="1"/>
<line class="glow" x1="728.8" y1="75.1" x2="770.0" y2="99.7" stroke="#E4570E" stroke-opacity="0.45" stroke-width="1"/>
<line class="glow" x1="728.8" y1="75.1" x2="719.9" y2="87.0" stroke="#E4570E" stroke-opacity="0.45" stroke-width="1"/>
<line class="glow" x1="728.8" y1="75.1" x2="689.4" y2="47.1" stroke="#E4570E" stroke-opacity="0.45" stroke-width="1"/>
<line x1="722.0" y1="117.9" x2="730.1" y2="103.9" stroke="#111110" stroke-opacity="0.16" stroke-width="1"/>
<line x1="722.0" y1="117.9" x2="770.0" y2="99.7" stroke="#111110" stroke-opacity="0.16" stroke-width="1"/>
<line x1="722.0" y1="117.9" x2="771.6" y2="131.8" stroke="#111110" stroke-opacity="0.16" stroke-width="1"/>
<line x1="722.0" y1="117.9" x2="719.9" y2="87.0" stroke="#111110" stroke-opacity="0.16" stroke-width="1"/>
<line x1="769.9" y1="67.0" x2="730.1" y2="103.9" stroke="#111110" stroke-opacity="0.16" stroke-width="1"/>
<line x1="769.9" y1="67.0" x2="770.0" y2="99.7" stroke="#111110" stroke-opacity="0.16" stroke-width="1"/>
<line x1="769.9" y1="67.0" x2="719.9" y2="87.0" stroke="#111110" stroke-opacity="0.16" stroke-width="1"/>
<line class="glow" x1="510.2" y1="117.9" x2="487.8" y2="173.9" stroke="#E4570E" stroke-opacity="0.45" stroke-width="1"/>
<line class="glow" x1="510.2" y1="117.9" x2="514.5" y2="157.6" stroke="#E4570E" stroke-opacity="0.45" stroke-width="1"/>
<line class="glow" x1="510.2" y1="117.9" x2="537.5" y2="82.3" stroke="#E4570E" stroke-opacity="0.45" stroke-width="1"/>
<line class="glow" x1="686.6" y1="204.4" x2="685.0" y2="194.4" stroke="#E4570E" stroke-opacity="0.45" stroke-width="1"/>
<line class="glow" x1="686.6" y1="204.4" x2="732.3" y2="209.2" stroke="#E4570E" stroke-opacity="0.45" stroke-width="1"/>
<line x1="534.0" y1="213.7" x2="487.8" y2="173.9" stroke="#111110" stroke-opacity="0.16" stroke-width="1"/>
<line x1="534.0" y1="213.7" x2="514.5" y2="157.6" stroke="#111110" stroke-opacity="0.16" stroke-width="1"/>
<line class="glow" x1="560.5" y1="64.6" x2="537.5" y2="82.3" stroke="#E4570E" stroke-opacity="0.45" stroke-width="1"/>
<line x1="487.8" y1="173.9" x2="514.5" y2="157.6" stroke="#111110" stroke-opacity="0.16" stroke-width="1"/>
<line class="glow" x1="639.4" y1="26.5" x2="689.4" y2="47.1" stroke="#E4570E" stroke-opacity="0.45" stroke-width="1"/>
<line class="glow" x1="639.4" y1="26.5" x2="621.9" y2="53.2" stroke="#E4570E" stroke-opacity="0.45" stroke-width="1"/>
<line x1="770.3" y1="192.3" x2="771.6" y2="131.8" stroke="#111110" stroke-opacity="0.16" stroke-width="1"/>
<line x1="770.3" y1="192.3" x2="732.3" y2="209.2" stroke="#111110" stroke-opacity="0.16" stroke-width="1"/>
<line x1="730.1" y1="103.9" x2="770.0" y2="99.7" stroke="#111110" stroke-opacity="0.16" stroke-width="1"/>
<line x1="730.1" y1="103.9" x2="771.6" y2="131.8" stroke="#111110" stroke-opacity="0.16" stroke-width="1"/>
<line x1="730.1" y1="103.9" x2="719.9" y2="87.0" stroke="#111110" stroke-opacity="0.16" stroke-width="1"/>
<line x1="770.0" y1="99.7" x2="771.6" y2="131.8" stroke="#111110" stroke-opacity="0.16" stroke-width="1"/>
<line x1="770.0" y1="99.7" x2="719.9" y2="87.0" stroke="#111110" stroke-opacity="0.16" stroke-width="1"/>
<line x1="719.9" y1="87.0" x2="689.4" y2="47.1" stroke="#111110" stroke-opacity="0.16" stroke-width="1"/>
<line x1="685.0" y1="194.4" x2="732.3" y2="209.2" stroke="#111110" stroke-opacity="0.16" stroke-width="1"/>
<circle class="cold" style="animation-delay:-0.00s" cx="470.0" cy="204.2" r="2.1" fill="#111110"/><circle class="cold" style="animation-delay:-0.37s" cx="718.0" cy="126.5" r="3.6" fill="#111110"/><circle class="cold" style="animation-delay:-0.74s" cx="726.7" cy="128.6" r="3.3" fill="#111110"/><circle class="cold" style="animation-delay:-1.11s" cx="747.7" cy="68.4" r="3.4" fill="#111110"/><circle class="cold" style="animation-delay:-1.48s" cx="707.3" cy="30.8" r="2.8" fill="#111110"/><circle class="halo" style="animation-delay:-1.85s" cx="783.6" cy="181.5" r="2.9" fill="none" stroke="#E4570E" stroke-width="1"/><circle class="hot" style="animation-delay:-1.85s" cx="783.6" cy="181.5" r="2.9" fill="#E4570E"/><circle class="cold" style="animation-delay:-2.22s" cx="783.9" cy="157.7" r="3.1" fill="#111110"/><circle class="cold" style="animation-delay:-2.59s" cx="780.1" cy="201.7" r="2.5" fill="#111110"/><circle class="halo" style="animation-delay:-2.96s" cx="754.6" cy="86.5" r="2.4" fill="none" stroke="#E4570E" stroke-width="1"/><circle class="hot" style="animation-delay:-2.96s" cx="754.6" cy="86.5" r="2.4" fill="#E4570E"/><circle class="cold" style="animation-delay:-3.33s" cx="615.7" cy="79.0" r="3.0" fill="#111110"/><circle class="halo" style="animation-delay:-3.70s" cx="718.0" cy="195.6" r="2.3" fill="none" stroke="#E4570E" stroke-width="1"/><circle class="hot" style="animation-delay:-3.70s" cx="718.0" cy="195.6" r="2.3" fill="#E4570E"/><circle class="cold" style="animation-delay:-0.07s" cx="660.6" cy="121.8" r="2.1" fill="#111110"/><circle class="cold" style="animation-delay:-0.44s" cx="779.0" cy="31.0" r="2.5" fill="#111110"/><circle class="cold" style="animation-delay:-0.81s" cx="695.9" cy="204.9" r="2.0" fill="#111110"/><circle class="cold" style="animation-delay:-1.18s" cx="607.9" cy="76.7" r="2.7" fill="#111110"/><circle class="cold" style="animation-delay:-1.55s" cx="583.1" cy="126.3" r="2.2" fill="#111110"/><circle class="cold" style="animation-delay:-1.92s" cx="778.2" cy="111.6" r="3.3" fill="#111110"/><circle class="cold" style="animation-delay:-2.29s" cx="685.7" cy="123.2" r="3.4" fill="#111110"/><circle class="cold" style="animation-delay:-2.66s" cx="789.5" cy="99.3" r="2.3" fill="#111110"/><circle class="cold" style="animation-delay:-3.03s" cx="669.5" cy="90.1" r="2.6" fill="#111110"/><circle class="halo" style="animation-delay:-3.40s" cx="740.2" cy="195.5" r="3.7" fill="none" stroke="#E4570E" stroke-width="1"/><circle class="hot" style="animation-delay:-3.40s" cx="740.2" cy="195.5" r="3.7" fill="#E4570E"/><circle class="halo" style="animation-delay:-3.77s" cx="496.4" cy="101.4" r="1.8" fill="none" stroke="#E4570E" stroke-width="1"/><circle class="hot" style="animation-delay:-3.77s" cx="496.4" cy="101.4" r="1.8" fill="#E4570E"/><circle class="cold" style="animation-delay:-0.14s" cx="808.7" cy="64.0" r="2.0" fill="#111110"/><circle class="halo" style="animation-delay:-0.51s" cx="625.4" cy="138.6" r="4.0" fill="none" stroke="#E4570E" stroke-width="1"/><circle class="hot" style="animation-delay:-0.51s" cx="625.4" cy="138.6" r="4.0" fill="#E4570E"/><circle class="cold" style="animation-delay:-0.88s" cx="770.8" cy="198.1" r="4.0" fill="#111110"/><circle class="halo" style="animation-delay:-1.25s" cx="728.8" cy="75.1" r="2.2" fill="none" stroke="#E4570E" stroke-width="1"/><circle class="hot" style="animation-delay:-1.25s" cx="728.8" cy="75.1" r="2.2" fill="#E4570E"/><circle class="cold" style="animation-delay:-1.62s" cx="495.9" cy="20.3" r="2.2" fill="#111110"/><circle class="cold" style="animation-delay:-1.99s" cx="722.0" cy="117.9" r="2.2" fill="#111110"/><circle class="cold" style="animation-delay:-2.36s" cx="769.9" cy="67.0" r="3.9" fill="#111110"/><circle class="halo" style="animation-delay:-2.73s" cx="510.2" cy="117.9" r="4.0" fill="none" stroke="#E4570E" stroke-width="1"/><circle class="hot" style="animation-delay:-2.73s" cx="510.2" cy="117.9" r="4.0" fill="#E4570E"/><circle class="halo" style="animation-delay:-3.10s" cx="686.6" cy="204.4" r="3.9" fill="none" stroke="#E4570E" stroke-width="1"/><circle class="hot" style="animation-delay:-3.10s" cx="686.6" cy="204.4" r="3.9" fill="#E4570E"/><circle class="cold" style="animation-delay:-3.47s" cx="534.0" cy="213.7" r="3.4" fill="#111110"/><circle class="halo" style="animation-delay:-3.84s" cx="560.5" cy="64.6" r="3.1" fill="none" stroke="#E4570E" stroke-width="1"/><circle class="hot" style="animation-delay:-3.84s" cx="560.5" cy="64.6" r="3.1" fill="#E4570E"/><circle class="cold" style="animation-delay:-0.21s" cx="487.8" cy="173.9" r="3.5" fill="#111110"/><circle class="halo" style="animation-delay:-0.58s" cx="639.4" cy="26.5" r="4.0" fill="none" stroke="#E4570E" stroke-width="1"/><circle class="hot" style="animation-delay:-0.58s" cx="639.4" cy="26.5" r="4.0" fill="#E4570E"/><circle class="cold" style="animation-delay:-0.95s" cx="514.5" cy="157.6" r="1.7" fill="#111110"/><circle class="cold" style="animation-delay:-1.32s" cx="770.3" cy="192.3" r="4.1" fill="#111110"/><circle class="cold" style="animation-delay:-1.69s" cx="730.1" cy="103.9" r="3.5" fill="#111110"/><circle class="cold" style="animation-delay:-2.06s" cx="770.0" cy="99.7" r="2.7" fill="#111110"/><circle class="cold" style="animation-delay:-2.43s" cx="771.6" cy="131.8" r="3.2" fill="#111110"/><circle class="cold" style="animation-delay:-2.80s" cx="719.9" cy="87.0" r="2.7" fill="#111110"/><circle class="cold" style="animation-delay:-3.17s" cx="537.5" cy="82.3" r="4.2" fill="#111110"/><circle class="cold" style="animation-delay:-3.54s" cx="685.0" cy="194.4" r="2.1" fill="#111110"/><circle class="cold" style="animation-delay:-3.91s" cx="689.4" cy="47.1" r="3.0" fill="#111110"/><circle class="cold" style="animation-delay:-0.28s" cx="732.3" cy="209.2" r="2.1" fill="#111110"/><circle class="cold" style="animation-delay:-0.65s" cx="621.9" cy="53.2" r="3.0" fill="#111110"/>
</g>
<text x="40" y="78" font-family="'SFMono-Regular', Consolas, 'Liberation Mono', monospace" font-size="12" letter-spacing="2" fill="#E4570E">BACK-END · JAVA · SPRING</text>
<text x="40" y="135" font-family="'Segoe UI', 'Helvetica Neue', Arial, sans-serif" font-size="50" font-weight="700" fill="#111110">Kauan Di Nubila</text>
<text x="40" y="170" font-family="'Segoe UI', 'Helvetica Neue', Arial, sans-serif" font-size="17" fill="#6B6A65">Sistemas completos, do código ao deploy.</text>
<rect x="40" y="192" width="56" height="4" rx="2" fill="#E4570E"/>
</svg>